<?xml version="1.0" encoding="UTF-8"?>
<svg width="168.67999267578125px" height="125.15999755859374px" xmlns="http://www.w3.org/2000/svg" viewBox="165.66000366210938 12.420001220703128 168.67999267578125 125.15999755859374" style="background: rgb(5, 17, 3); --darkreader-inline-bgcolor: #040e02; --darkreader-inline-bgimage: none;" data-darkreader-inline-bgcolor="" data-darkreader-inline-bgimage="" preserveAspectRatio="xMidYMid"><defs><linearGradient id="editing-glowing-gradient" x1="0.8146601955249185" x2="0.18533980447508147" y1="0.8885729807284856" y2="0.11142701927151444"><stop offset="0" stop-color="#67ff43" style="--darkreader-inline-stopcolor: #40a400;" data-darkreader-inline-stopcolor=""></stop><stop offset="1" stop-color="#90ffff" style="--darkreader-inline-stopcolor: #007676;" data-darkreader-inline-stopcolor=""></stop></linearGradient><filter id="editing-glowing" x="-100%" y="-100%" width="300%" height="300%"><feGaussianBlur in="SourceGraphic" result="blur" stdDeviation="10"></feGaussianBlur><feMerge><feMergeNode in="blur"></feMergeNode><feMergeNode in="SourceGraphic"></feMergeNode></feMerge></filter></defs><g filter="url(#editing-glowing)"><g transform="translate(194.60500621795654, 98.06999969482422)"><path d="M6.02-11.39L6.02-11.39Q6.21-9.22 7.65-7.23L7.65-7.23L7.65-7.23Q9.09-5.25 11.62-4L11.62-4L11.62-4Q14.14-2.75 17.41-2.75L17.41-2.75L17.41-2.75Q22.34-2.75 25.63-4.96L25.63-4.96L25.63-4.96Q28.93-7.17 28.93-11.97L28.93-11.97L28.93-11.97Q28.93-14.78 27.33-16.67L27.33-16.67L27.33-16.67Q25.73-18.56 23.36-19.68L23.36-19.68L23.36-19.68Q20.99-20.80 16.90-22.27L16.90-22.27L16.90-22.27Q12.48-23.81 9.82-25.12L9.82-25.12L9.82-25.12Q7.17-26.43 5.34-28.67L5.34-28.67L5.34-28.67Q3.52-30.91 3.52-34.43L3.52-34.43L3.52-34.43Q3.52-37.25 5.12-39.78L5.12-39.78L5.12-39.78Q6.72-42.30 9.95-43.87L9.95-43.87L9.95-43.87Q13.18-45.44 17.92-45.44L17.92-45.44L17.92-45.44Q21.06-45.44 23.10-44.99L23.10-44.99L23.10-44.99Q25.15-44.54 27.26-43.52L27.26-43.52L26.18-40.13L26.18-40.13Q22.53-41.98 18.05-41.98L18.05-41.98L18.05-41.98Q13.12-41.98 10.18-39.94L10.18-39.94L10.18-39.94Q7.23-37.89 7.23-34.24L7.23-34.24L7.23-34.24Q7.23-31.94 8.70-30.37L8.70-30.37L8.70-30.37Q10.18-28.80 12.32-27.84L12.32-27.84L12.32-27.84Q14.46-26.88 18.30-25.54L18.30-25.54L18.30-25.54Q22.98-23.94 25.86-22.56L25.86-22.56L25.86-22.56Q28.74-21.18 30.75-18.66L30.75-18.66L30.75-18.66Q32.77-16.13 32.77-12.29L32.77-12.29L32.77-12.29Q32.77-6.40 29.02-2.85L29.02-2.85L29.02-2.85Q25.28 0.70 17.47 0.70L17.47 0.70L17.47 0.70Q12.74 0.70 9.38-1.06L9.38-1.06L9.38-1.06Q6.02-2.82 4.26-5.60L4.26-5.60L4.26-5.60Q2.50-8.38 2.37-11.39L2.37-11.39L6.02-11.39ZM71.62 0L71.62-34.24L59.97 0L56.06 0L44.48-34.24L44.48 0L40.90 0L40.90-44.80L44.48-44.80L57.98-5.50L71.62-44.80L75.20-44.80L75.20 0L71.62 0ZM85.31 0L85.31-44.80L88.90-44.80L88.90-3.20L108.42-3.20L108.42 0L85.31 0Z" fill="url(#editing-glowing-gradient)"></path></g></g><style>text {
  font-size: 64px;
  font-family: Arial Black;
  dominant-baseline: central;
  text-anchor: middle;
}</style><style class="darkreader darkreader--sync" media="screen"></style></svg>